<mxfile host="65bd71144e">
    <diagram id="aTmyUwazJOv9AOSmKgip" name="第 1 页">
        <mxGraphModel dx="1186" dy="624" grid="1" gridSize="10" guides="1" tooltips="1" connect="1" arrows="1" fold="1" page="1" pageScale="1" pageWidth="1169" pageHeight="827" math="0" shadow="0">
            <root>
                <mxCell id="0"/>
                <mxCell id="1" parent="0"/>
                <mxCell id="23" value="" style="edgeStyle=none;html=1;strokeColor=#FF3333;" parent="1" source="14" target="16" edge="1">
                    <mxGeometry relative="1" as="geometry"/>
                </mxCell>
                <mxCell id="24" style="edgeStyle=none;html=1;exitX=0.145;exitY=1;exitDx=0;exitDy=-4.35;exitPerimeter=0;entryX=0.145;entryY=0;entryDx=0;entryDy=4.35;entryPerimeter=0;strokeColor=#FF3333;" parent="1" source="14" target="16" edge="1">
                    <mxGeometry relative="1" as="geometry"/>
                </mxCell>
                <mxCell id="25" style="edgeStyle=none;html=1;exitX=0.855;exitY=1;exitDx=0;exitDy=-4.35;exitPerimeter=0;entryX=0.855;entryY=0;entryDx=0;entryDy=4.35;entryPerimeter=0;strokeColor=#FF3333;" parent="1" source="14" target="16" edge="1">
                    <mxGeometry relative="1" as="geometry"/>
                </mxCell>
                <mxCell id="14" value="redis-01" style="shape=cylinder3;whiteSpace=wrap;html=1;boundedLbl=1;backgroundOutline=1;size=15;" parent="1" vertex="1">
                    <mxGeometry x="370" y="170" width="60" height="80" as="geometry"/>
                </mxCell>
                <mxCell id="15" value="Redis数据进行同步" style="text;html=1;align=center;verticalAlign=middle;resizable=0;points=[];autosize=1;strokeColor=none;fillColor=none;fontSize=14;" parent="1" vertex="1">
                    <mxGeometry x="330" y="440" width="140" height="30" as="geometry"/>
                </mxCell>
                <mxCell id="16" value="redis-02" style="shape=cylinder3;whiteSpace=wrap;html=1;boundedLbl=1;backgroundOutline=1;size=15;" parent="1" vertex="1">
                    <mxGeometry x="370" y="320" width="60" height="80" as="geometry"/>
                </mxCell>
                <mxCell id="19" style="edgeStyle=none;html=1;entryX=0;entryY=1;entryDx=0;entryDy=-15;entryPerimeter=0;" parent="1" source="17" target="14" edge="1">
                    <mxGeometry relative="1" as="geometry"/>
                </mxCell>
                <mxCell id="20" style="edgeStyle=none;html=1;entryX=0;entryY=0;entryDx=0;entryDy=52.5;entryPerimeter=0;dashed=1;dashPattern=12 12;" parent="1" source="17" target="16" edge="1">
                    <mxGeometry relative="1" as="geometry"/>
                </mxCell>
                <mxCell id="17" value="Svr-A-02" style="rounded=1;whiteSpace=wrap;html=1;strokeColor=#F0F0F0;" parent="1" vertex="1">
                    <mxGeometry x="200" y="280" width="80" height="40" as="geometry"/>
                </mxCell>
                <mxCell id="21" style="edgeStyle=none;html=1;entryX=1;entryY=1;entryDx=0;entryDy=-15;entryPerimeter=0;" parent="1" source="18" target="14" edge="1">
                    <mxGeometry relative="1" as="geometry"/>
                </mxCell>
                <mxCell id="22" style="edgeStyle=none;html=1;entryX=1;entryY=0;entryDx=0;entryDy=52.5;entryPerimeter=0;dashed=1;dashPattern=12 12;" parent="1" source="18" target="16" edge="1">
                    <mxGeometry relative="1" as="geometry"/>
                </mxCell>
                <mxCell id="18" value="Svr-B-02" style="rounded=1;whiteSpace=wrap;html=1;strokeColor=#F0F0F0;" parent="1" vertex="1">
                    <mxGeometry x="520" y="280" width="80" height="40" as="geometry"/>
                </mxCell>
            </root>
        </mxGraphModel>
    </diagram>
</mxfile>